<?xml version="1.0" encoding="utf-8"?>
<!-- Generator: Adobe Illustrator 19.0.0, SVG Export Plug-In . SVG Version: 6.00 Build 0)  -->
<svg version="1.1" id="Layer_1" xmlns="http://www.w3.org/2000/svg" xmlns:xlink="http://www.w3.org/1999/xlink" x="0px" y="0px"
	 viewBox="0 0 500 500" style="enable-background:new 0 0 500 500;" xml:space="preserve">
<style type="text/css">
	.st0{fill:#007BB5;}
	.st1{fill:#FFFFFF;}
</style>
<g id="XMLID_1_">
	<g id="XMLID_2_">
		<g id="XMLID_3_">
			<g id="XMLID_4_">
				<g id="XMLID_5_">
					<polygon id="XMLID_15_" points="60,216.8 74.6,216.8 74.6,269.8 101.5,269.8 101.5,283.2 60,283.2 					"/>
					<g id="XMLID_6_">
						<path id="XMLID_7_" d="M107.9,238.2h14v45h-14V238.2z M114.9,215.8c4.5,0,8.1,3.6,8.1,8.1c0,4.5-3.6,8.1-8.1,8.1
							c-4.5,0-8.1-3.6-8.1-8.1C106.8,219.4,110.5,215.8,114.9,215.8"/>
					</g>
					<polygon id="XMLID_12_" points="180.4,216.8 194.4,216.8 194.4,256.5 210.3,238.2 227.4,238.2 209.1,259 227,283.2 
						209.5,283.2 194.6,261 194.4,261 194.4,283.2 180.4,283.2 					"/>
					<path id="XMLID_11_" d="M129.7,238.2h13.4v6.2h0.2c1.9-3.5,6.4-7.3,13.2-7.3c14.2,0,16.8,9.3,16.8,21.5v24.7h-14v-21.9
						c0-5.2-0.1-11.9-7.3-11.9c-7.3,0-8.4,5.7-8.4,11.6v22.3h-14V238.2z"/>
					<path id="XMLID_8_" d="M256.9,255.5c0.1-4.7-3.5-8.6-8.6-8.6c-6.2,0-9.5,4.2-9.9,8.6H256.9z M268.7,275.4
						c-4.5,5.7-11.8,9-19.1,9c-14,0-25.2-9.3-25.2-23.8c0-14.5,11.2-23.8,25.2-23.8c13.1,0,21.3,9.3,21.3,23.8v4.4h-32.5
						c1.1,5.3,5.1,8.8,10.5,8.8c4.6,0,7.6-2.3,10-5.5L268.7,275.4z"/>
					<path id="XMLID_16_" d="M300,249.1c-7,0-11.2,4.7-11.2,11.5c0,6.8,4.2,11.5,11.2,11.5c7,0,11.2-4.7,11.2-11.5
						C311.2,253.7,307,249.1,300,249.1 M324.1,283.2h-12.9v-6H311c-2.2,3.3-7.6,7.1-13.9,7.1c-13.4,0-22.3-9.7-22.3-23.4
						c0-12.6,7.8-24.2,20.7-24.2c5.8,0,11.2,1.6,14.4,6h0.2v-26h14V283.2z"/>
				</g>
				<path class="st0" d="M425.5,202.8h-80.4c-3.8,0-7,3-7,6.8v80.8c0,3.8,3.1,6.8,7,6.8h80.4c3.9,0,7-3.1,7-6.8v-80.8
					C432.5,205.9,429.4,202.8,425.5,202.8z"/>
				<path id="XMLID_19_" class="st1" d="M352.1,238.2h14v45h-14V238.2z M359.1,215.8c4.5,0,8.1,3.6,8.1,8.1c0,4.5-3.6,8.1-8.1,8.1
					c-4.5,0-8.1-3.6-8.1-8.1C351,219.4,354.6,215.8,359.1,215.8"/>
				<path id="XMLID_24_" class="st1" d="M374.9,238.2h13.4v6.2h0.2c1.9-3.5,6.4-7.3,13.2-7.3c14.2,0,16.8,9.3,16.8,21.5v24.7h-14
					v-21.9c0-5.2-0.1-11.9-7.3-11.9c-7.3,0-8.4,5.7-8.4,11.6v22.3h-14V238.2z"/>
			</g>
		</g>
	</g>
	<g id="XMLID_25_">
		<polygon id="XMLID_26_" points="434.8,280.9 435.6,280.9 435.6,283.2 436,283.2 436,280.9 436.7,280.9 436.7,280.5 434.8,280.5 		
			"/>
		<polygon id="XMLID_27_" points="439.4,280.5 438.6,282.5 437.8,280.5 437.2,280.5 437.2,283.2 437.6,283.2 437.6,281.1 
			438.5,283.2 438.7,283.2 439.6,281.1 439.6,283.2 440,283.2 440,280.5 		"/>
	</g>
</g>
</svg>
